<?xml version="1.0" standalone="no"?>
<!DOCTYPE svg PUBLIC "-//W3C//DTD SVG 20010904//EN"
 "http://www.w3.org/TR/2001/REC-SVG-20010904/DTD/svg10.dtd">
<svg version="1.0" xmlns="http://www.w3.org/2000/svg"
 width="446.000000pt" height="180.000000pt" viewBox="0 0 446.000000 180.000000"
 preserveAspectRatio="xMidYMid meet">

<g transform="translate(0.000000,180.000000) scale(0.100000,-0.100000)"
fill="#000000" stroke="none">
<path d="M192 1198 c-9 -9 -12 -78 -12 -250 l0 -238 45 0 46 0 -3 180 c-2 99
-1 180 2 180 4 0 208 -182 330 -294 49 -46 90 -76 102 -76 5 0 17 9 28 20 19
19 20 33 20 255 l0 235 -45 0 -45 0 0 -180 c0 -99 -2 -180 -5 -180 -5 0 -218
188 -348 307 -58 53 -91 65 -115 41z"/>
<path d="M968 1202 l-158 -3 0 -244 0 -245 178 0 c205 0 255 10 319 65 57 49
83 106 83 183 0 101 -41 171 -124 214 -54 27 -113 33 -298 30z m242 -104 c59
-31 82 -66 87 -130 5 -68 -25 -122 -82 -152 -34 -18 -62 -22 -177 -24 l-138
-4 0 166 0 166 133 0 c118 0 138 -3 177 -22z"/>
<path d="M1878 1096 c-140 -96 -159 -112 -156 -134 2 -19 38 -50 163 -138
l160 -113 95 0 95 0 40 62 40 62 170 0 169 0 44 -63 44 -63 96 3 c89 3 97 5
98 23 1 11 2 102 3 202 l1 182 103 3 102 3 3 38 3 37 -260 0 -261 0 0 -40 0
-40 105 0 105 0 0 -197 0 -198 -157 237 c-87 131 -166 240 -175 244 -10 3 -26
3 -37 -1 -10 -3 -87 -109 -171 -236 -85 -126 -156 -228 -159 -227 -4 2 -77 52
-164 111 l-158 109 23 17 c13 10 92 64 176 120 83 56 152 103 152 104 0 2 -30
3 -67 2 l-66 0 -159 -109z m674 -103 c31 -45 53 -84 50 -87 -10 -11 -232 -7
-232 4 0 18 113 181 120 173 4 -4 32 -45 62 -90z"/>
<path d="M20 955 l0 -245 45 0 45 0 0 245 0 245 -45 0 -45 0 0 -245z"/>
<path d="M1430 955 l0 -245 50 0 50 0 0 245 0 245 -50 0 -50 0 0 -245z"/>
<path d="M1590 955 l0 -245 45 0 45 0 1 110 c1 61 2 117 2 125 0 8 -1 69 -2
135 l-1 120 -45 0 -45 0 0 -245z"/>
<path d="M3378 1193 c7 -3 16 -2 19 1 4 3 -2 6 -13 5 -11 0 -14 -3 -6 -6z"/>
<path d="M3468 1193 c6 -2 18 -2 25 0 6 3 1 5 -13 5 -14 0 -19 -2 -12 -5z"/>
<path d="M3796 1192 c-2 -4 -3 -114 -1 -243 l5 -234 42 0 43 0 3 68 3 67 137
0 137 0 70 -70 70 -70 65 1 65 0 -79 74 c-44 41 -78 76 -75 77 2 2 18 10 34
19 38 21 75 91 75 144 0 59 -37 125 -85 152 -38 22 -51 23 -272 23 -127 0
-234 -4 -237 -8z m471 -96 c24 -21 28 -32 28 -75 0 -39 -5 -56 -23 -73 -21
-22 -31 -23 -202 -26 l-180 -3 0 100 0 101 174 0 c170 0 176 -1 203 -24z"/>
<path d="M3323 1184 c9 -3 15 -9 13 -13 -3 -4 9 -5 25 -3 37 5 35 8 -16 15
-22 3 -32 3 -22 1z"/>
<path d="M3495 1181 l-30 -7 35 -6 c43 -7 69 0 48 13 -7 5 -15 8 -18 8 -3 -1
-18 -4 -35 -8z"/>
<path d="M3465 1145 c-25 -11 -27 -14 -9 -14 12 -1 27 6 34 14 15 18 14 18
-25 0z"/>
<path d="M3380 1146 c0 -2 9 -6 20 -9 11 -3 20 -1 20 4 0 5 -9 9 -20 9 -11 0
-20 -2 -20 -4z"/>
<path d="M3510 1138 c0 -4 4 -8 9 -8 6 0 12 4 15 8 3 5 -1 9 -9 9 -8 0 -15 -4
-15 -9z"/>
<path d="M3565 1112 c-102 -32 -108 -36 -79 -43 41 -11 101 -71 113 -112 6
-22 10 -27 14 -17 12 30 66 204 64 206 -1 1 -51 -14 -112 -34z"/>
<path d="M3250 1132 c0 -7 4 -12 8 -12 5 0 13 -8 18 -18 8 -16 12 -16 54 5 28
15 37 23 24 23 -11 0 -29 -7 -40 -15 -22 -17 -34 -19 -34 -6 0 5 9 13 21 16
11 4 18 9 16 12 -3 2 -14 0 -25 -6 -13 -7 -22 -7 -30 1 -9 9 -12 9 -12 0z"/>
<path d="M3220 1101 c-8 -6 -17 -8 -21 -5 -4 2 -11 0 -14 -6 -4 -6 -1 -9 6 -8
6 2 16 -12 21 -30 9 -34 12 -34 48 12 14 18 14 19 -7 5 -13 -8 -23 -18 -24
-24 -1 -5 -4 1 -8 15 -5 17 -2 29 8 37 19 14 12 17 -9 4z"/>
<path d="M3671 1023 c-8 -27 -16 -55 -19 -63 -3 -13 -2 -13 6 -1 7 10 9 -5 5
-50 -6 -80 -41 -159 -82 -188 -17 -12 -28 -27 -25 -33 4 -6 2 -8 -3 -5 -6 4
-30 0 -54 -9 -57 -20 -127 -12 -187 21 l-46 26 -25 -25 -25 -25 25 -20 c78
-66 230 -79 326 -28 26 14 47 30 46 36 -2 6 4 8 12 5 8 -4 15 -2 15 3 0 4 11
21 26 36 14 15 22 32 18 39 -4 6 -3 8 4 4 6 -3 18 13 29 41 26 69 24 184 -5
241 -12 23 -24 42 -25 42 -1 0 -9 -21 -16 -47z"/>
<path d="M3171 1023 c-7 -8 -10 -17 -6 -21 4 -4 10 -1 13 7 3 10 8 8 17 -9 10
-19 13 -20 18 -6 5 12 3 15 -5 10 -8 -5 -9 -2 -5 10 4 9 3 15 -2 11 -5 -3 -11
-1 -13 4 -1 5 -9 2 -17 -6z"/>
<path d="M3140 982 c0 -4 4 -13 9 -20 7 -11 9 -11 14 1 3 9 -1 18 -9 21 -8 3
-14 2 -14 -2z"/>
<path d="M3186 955 c-3 -9 -6 -22 -5 -28 0 -7 5 -1 10 12 5 13 8 26 5 28 -2 2
-6 -3 -10 -12z"/>
<path d="M3178 860 c-4 -14 -9 -36 -13 -50 -4 -16 0 -12 10 9 9 19 14 42 12
50 -2 10 -5 7 -9 -9z"/>
<path d="M3134 830 c0 -13 4 -16 10 -10 7 7 7 13 0 20 -6 6 -10 3 -10 -10z"/>
<path d="M3210 781 c0 -6 4 -13 10 -16 6 -3 7 1 4 9 -7 18 -14 21 -14 7z"/>
<path d="M3194 720 c0 -10 3 -17 7 -14 4 2 9 -2 12 -8 2 -7 8 -10 12 -6 4 4
-1 16 -12 27 -18 19 -19 19 -19 1z"/>
</g>
</svg>
